<svg width="126" height="70" viewBox="0 0 126 70" fill="none" xmlns="http://www.w3.org/2000/svg">
<path fill-rule="evenodd" clip-rule="evenodd" d="M27.1567 0.161221C27.3254 0.83592 26.7069 0.72347 26.482 1.39817C26.0322 2.52267 26.4258 5.33391 24.739 5.05279C22.7149 4.65921 23.9519 -1.0195 27.1567 0.161221Z" fill="#289548"/>
<path fill-rule="evenodd" clip-rule="evenodd" d="M21.5905 3.47852C22.7712 3.75964 23.727 4.37811 23.8395 5.72751C23.1648 5.55884 22.715 6.00864 22.4338 5.72751C22.2652 4.94036 21.984 4.09699 21.5905 3.47852Z" fill="#289548"/>
<path fill-rule="evenodd" clip-rule="evenodd" d="M29.0683 2.74756C29.5181 2.74756 29.743 3.02868 29.743 3.42226C29.5744 3.42226 29.6306 3.64716 29.5744 3.75961C29.0683 3.92828 29.1246 3.53471 28.731 3.59093C28.5623 3.08491 29.0121 3.08491 29.0683 2.74756Z" fill="#A2C037"/>
<path fill-rule="evenodd" clip-rule="evenodd" d="M30.98 3.64707C30.7551 3.87197 30.3615 3.87197 30.1366 3.64707C30.0242 2.91615 31.2049 2.63502 30.98 3.64707Z" fill="#A2C037"/>
<path fill-rule="evenodd" clip-rule="evenodd" d="M28.5623 3.98459C28.0563 4.04081 27.6065 3.98459 27.7189 3.47856C28.0001 3.14121 28.731 3.25366 28.5623 3.98459Z" fill="#A2C037"/>
<path fill-rule="evenodd" clip-rule="evenodd" d="M26.6507 3.47856C27.2129 3.42234 27.494 3.70346 27.494 4.15326C27.3816 4.32194 27.0442 4.26571 26.988 4.49061C26.5944 4.43439 26.2571 3.81591 26.6507 3.47856Z" fill="#A2C037"/>
<path fill-rule="evenodd" clip-rule="evenodd" d="M31.7109 3.47851C31.7109 3.70341 31.7109 3.92831 31.7109 4.15321C31.0362 4.32189 31.0362 3.30984 31.7109 3.47851Z" fill="#A2C037"/>
<path fill-rule="evenodd" clip-rule="evenodd" d="M26.1446 8.31372C26.4819 8.31372 26.8193 8.31372 27.2129 8.31372C27.2129 8.87597 26.988 9.15709 26.8755 9.55067C26.4257 9.21332 25.751 8.98842 26.1446 8.31372Z" fill="white"/>
<path fill-rule="evenodd" clip-rule="evenodd" d="M60.4418 9.21354C59.486 9.66334 56.7872 8.48262 55.2129 9.38222C55.7189 7.69547 59.4298 8.65129 60.4418 9.21354Z" fill="#289548"/>
<path fill-rule="evenodd" clip-rule="evenodd" d="M61.4538 8.87598C61.2289 9.66313 61.004 10.394 60.3855 10.7876C59.8795 10.5065 60.6104 8.87598 61.4538 8.87598Z" fill="#A2C037"/>
<path fill-rule="evenodd" clip-rule="evenodd" d="M55.719 9.71936C59.3174 8.87599 60.7792 11.7435 61.4539 14.4423C58.3615 14.1049 56.9559 12.0808 55.5503 10.1129C56.5623 10.0005 57.8555 11.1812 58.8676 11.6872C58.7551 10.7876 57.0684 9.94426 55.719 9.71936Z" fill="#289548"/>
<path fill-rule="evenodd" clip-rule="evenodd" d="M61.7912 9.71948C62.0723 9.88816 62.3534 10.0006 62.2972 10.3942C62.0723 11.0689 61.51 11.4625 60.7229 11.6311C61.004 10.9002 61.5663 10.5066 61.7912 9.71948Z" fill="#A2C037"/>
<path fill-rule="evenodd" clip-rule="evenodd" d="M26.8193 10.0569C27.494 10.1131 27.494 10.7878 28.2249 10.7316C27.7751 10.9565 27.1566 11.0127 26.6506 11.2376C26.3133 10.9565 26.7068 10.4505 26.8193 10.0569Z" fill="white"/>
<path fill-rule="evenodd" clip-rule="evenodd" d="M62.8595 12.8681C62.2972 12.8119 62.4659 11.9685 62.0161 11.7998C62.4659 10.6753 63.6466 12.6994 62.8595 12.8681Z" fill="#289548"/>
<path fill-rule="evenodd" clip-rule="evenodd" d="M22.8836 23.4383C22.4338 20.9644 20.0162 18.1531 22.8836 16.635C22.715 16.4101 22.715 15.9603 22.3776 15.9603C21.6467 16.4101 21.5342 17.4784 21.1407 18.2093C19.6226 17.3097 21.3093 15.5106 21.984 14.7234C20.6346 14.0487 21.0282 16.635 19.735 16.635C19.7913 15.3419 20.4097 14.611 20.972 13.8238C20.8595 13.5989 20.6909 13.374 20.466 13.3178C19.3415 13.9925 20.1286 16.5788 18.5543 16.8037C18.5543 16.0166 19.0041 15.623 18.8917 14.7234C17.711 14.7234 18.4981 15.9041 18.217 16.9724C16.3053 17.9844 15.2371 19.7836 13.6628 21.133C13.3816 17.9282 9.55834 12.9242 15.2371 12.7555C15.8555 13.2616 16.474 13.8238 16.98 14.4985C17.8796 10.619 24.7391 11.0126 23.9519 16.2415C24.7953 16.2977 25.2451 15.9603 26.2009 16.0728C29.3495 18.4342 27.1567 24.0005 22.8836 23.4383Z" fill="#3A59A1"/>
<path fill-rule="evenodd" clip-rule="evenodd" d="M63.9277 13.5426C63.253 13.5989 62.4659 14.1611 61.8474 13.7113C62.241 13.4864 63.7028 12.4181 63.9277 13.5426Z" fill="#A2C037"/>
<path fill-rule="evenodd" clip-rule="evenodd" d="M63.7591 14.4424C63.9278 15.1733 62.6346 15.0046 62.3535 14.7797C62.3535 14.2175 63.1969 14.4986 63.7591 14.4424Z" fill="#A2C037"/>
<path fill-rule="evenodd" clip-rule="evenodd" d="M63.0282 15.2856C64.6025 16.5226 63.0282 20.5146 60.7792 18.2656C59.9921 16.2977 61.6226 15.623 63.0282 15.2856ZM61.4539 17.5909C61.9037 17.5346 62.0162 17.1411 62.1286 16.7475C61.5101 16.5788 61.0603 17.1411 61.4539 17.5909Z" fill="#C20D19"/>
<path fill-rule="evenodd" clip-rule="evenodd" d="M62.1849 16.6913C62.0724 17.0849 61.96 17.4785 61.5102 17.5347C61.0604 17.1411 61.5102 16.5789 62.1849 16.6913Z" fill="white"/>
<path fill-rule="evenodd" clip-rule="evenodd" d="M61.1165 18.7718C61.2852 19.4465 60.3293 19.3903 60.0482 19.1091C60.3293 18.6593 60.6667 18.6031 61.1165 18.7718Z" fill="#289548"/>
<path fill-rule="evenodd" clip-rule="evenodd" d="M19.5101 17.366C14.5623 18.7716 10.7952 24.7877 13.4378 30.5788C14.7872 29.2856 15.9117 26.7555 17.7671 26.5869C17.3735 28.386 16.1366 29.3419 16.0241 31.4784C18.498 30.9162 22.3213 26.6431 22.0964 23.4945C21.984 21.133 20.0723 19.615 19.5101 17.366ZM17.2611 22.2575C17.2048 21.6391 17.4297 21.3017 17.5984 20.8519C15.7992 21.4704 15.1808 23.3258 14.1125 24.6752C14.5623 22.2575 16.3615 19.615 19.004 18.7716C19.5663 19.2214 19.5663 20.2897 19.5101 21.3579C18.6105 19.9523 18.1607 22.1451 17.2611 22.2575Z" fill="#F5D631"/>
<path fill-rule="evenodd" clip-rule="evenodd" d="M6.29724 22.7635C6.18479 21.9202 5.51009 21.0768 4.04825 21.5266C-0.281071 22.876 6.80327 27.0929 6.29724 22.7635ZM5.56632 23.1571C4.83539 23.3258 4.72295 22.5949 5.06029 22.3137C5.22897 22.3137 5.39764 22.3137 5.56632 22.3137C5.56632 22.5386 5.56632 22.8198 5.56632 23.1571Z" fill="#F5D631"/>
<path fill-rule="evenodd" clip-rule="evenodd" d="M28.731 23.1572C25.0202 27.0367 25.4137 35.9765 17.7671 35.358C18.3856 34.7396 20.0161 35.1894 20.1848 34.1211C19.9037 33.5026 18.9479 33.6151 18.4418 33.2777C19.1165 32.097 21.3093 31.591 20.8595 29.7918C19.6226 30.2978 18.7792 31.1974 17.5422 31.7034C17.0924 31.7034 17.3173 31.591 17.3736 31.3661C19.0041 30.2416 20.1848 29.1171 21.3655 27.3741C22.0402 26.4183 22.4338 25.0126 23.1085 24.3942C24.4017 23.2697 26.5945 23.1572 28.731 23.1572Z" fill="#3A59A1"/>
<path fill-rule="evenodd" clip-rule="evenodd" d="M5.56628 25.9122C4.55424 24.7877 2.36147 24.7315 2.24902 26.4183C2.13657 28.4986 5.95986 29.1733 5.56628 25.9122ZM4.72291 26.9805C4.10444 27.093 3.93576 26.6994 4.04821 26.1371C4.21689 26.1371 4.38556 26.1371 4.55424 26.1371C4.66669 26.3058 4.77914 26.5869 4.72291 26.9805Z" fill="#F5D631"/>
<path fill-rule="evenodd" clip-rule="evenodd" d="M27.8876 34.6272C28.0562 34.6834 28.2249 34.7959 28.2249 34.9645C27.5502 36.5951 26.4257 37.7196 25.245 38.7878C25.6948 36.9886 26.3695 35.4143 27.8876 34.6272Z" fill="#289548"/>
<path fill-rule="evenodd" clip-rule="evenodd" d="M24.739 34.7957C24.9077 34.7957 25.0764 34.7957 25.245 34.7957C25.6948 36.0326 24.3454 36.876 24.4017 38.2816C23.5021 37.382 24.4579 35.639 24.739 34.7957Z" fill="#289548"/>
<path fill-rule="evenodd" clip-rule="evenodd" d="M29.9679 37.0447C28.5623 37.6069 27.3254 38.3941 26.1447 39.125C26.3133 37.7756 28.3937 36.876 29.4619 35.8077C30.1366 35.7515 29.9117 36.4824 29.9679 37.0447Z" fill="#289548"/>
<path fill-rule="evenodd" clip-rule="evenodd" d="M33.2852 37.7757C32.2731 39.6874 28.3936 38.0569 27.0442 39.8561C27.5502 38.5629 31.486 36.1452 33.2852 37.7757Z" fill="#A2C037"/>
<path fill-rule="evenodd" clip-rule="evenodd" d="M35.1968 39.6873C35.1406 41.374 32.7791 40.0808 31.2048 40.1933C29.8554 40.3057 28.7309 40.9804 27.7189 41.0367C29.2369 39.8559 32.6104 38.7877 35.1968 39.6873Z" fill="#A2C037"/>
<path fill-rule="evenodd" clip-rule="evenodd" d="M31.7109 41.2617C31.3173 42.6674 29.237 41.3742 28.0563 41.9364C28.6747 41.0931 30.6988 40.6995 31.7109 41.2617Z" fill="#289548"/>
<path fill-rule="evenodd" clip-rule="evenodd" d="M3.48596 41.093C3.99199 41.2055 4.38556 41.3741 4.89158 41.4304C4.66668 41.7677 4.61046 42.33 4.04821 42.2737C3.65464 42.1051 3.59841 41.5428 3.48596 41.093Z" fill="white"/>
<path fill-rule="evenodd" clip-rule="evenodd" d="M30.6426 42.6109C30.4177 43.6792 27.6627 43.5105 27.3253 42.6109C28.6185 42.7796 29.6305 42.1611 30.6426 42.6109Z" fill="#289548"/>
<path fill-rule="evenodd" clip-rule="evenodd" d="M8.04024 43.1733C8.09646 43.5669 8.20891 43.9042 8.54626 44.0167C8.32136 44.2978 7.42176 43.7918 6.97196 44.1854C6.85951 43.3982 7.14064 43.0046 8.04024 43.1733Z" fill="white"/>
<path fill-rule="evenodd" clip-rule="evenodd" d="M22.49 43.6792C22.0964 43.7354 21.8153 43.6792 21.6466 43.5105C21.6466 42.9483 22.5462 43.1169 22.49 43.6792Z" fill="white"/>
<path fill-rule="evenodd" clip-rule="evenodd" d="M20.5784 44.354C20.8595 44.6351 21.3656 44.6914 21.4218 45.1974C21.1407 45.2536 21.1407 45.0287 20.9158 45.0287C20.3535 44.9163 20.5784 45.5347 20.0724 45.366C20.1286 44.9725 20.6909 45.0287 20.5784 44.354Z" fill="white"/>
<path fill-rule="evenodd" clip-rule="evenodd" d="M33.7912 46.3219C34.5784 45.7034 35.984 45.085 36.9398 45.9846C37.0523 46.6593 37.5021 47.2215 37.1085 47.8962C37.6145 47.8962 38.1768 47.8962 38.6828 47.8962C39.0764 48.346 39.6949 49.2456 39.1888 49.9765C39.47 50.4826 40.3133 50.4826 40.7631 50.8199C41.0443 51.832 40.7631 52.1693 40.2571 52.7316C39.1326 52.5629 37.9519 52.5067 36.9398 52.2255C37.221 51.8882 37.8957 52.0006 37.7832 51.3822C37.8394 50.4263 37.1647 50.2577 36.2089 50.3139C36.4338 49.4143 36.3776 48.9083 35.7029 48.5709C35.1969 48.5147 35.1406 48.9645 34.6346 48.9083C34.8033 48.0087 34.2973 47.84 33.9599 47.5026C33.4539 47.4464 33.0603 47.5589 32.8917 47.84C32.4981 47.3902 32.3294 46.7717 31.6547 46.603C30.98 46.6593 30.6427 47.1091 30.4178 47.6713C30.0804 47.2777 29.7993 46.7717 29.1808 46.603C28.225 46.7155 27.8314 47.4464 27.9439 48.6834C24.0643 47.2777 28.6748 42.0488 30.1929 46.097C30.2491 43.9605 34.1286 43.6793 33.7912 46.3219Z" fill="#F5D631"/>
<path fill-rule="evenodd" clip-rule="evenodd" d="M31.8795 46.9965C32.0482 47.3901 32.498 47.5587 32.3855 48.2334C31.992 48.5708 31.4297 48.0648 30.6426 48.2334C30.8113 47.5587 30.8675 46.8278 31.8795 46.9965Z" fill="#C20D19"/>
<path fill-rule="evenodd" clip-rule="evenodd" d="M28.5623 47.1651C30.4177 46.9402 30.0242 48.4021 30.6426 49.0768C32.0483 47.2214 34.0161 50.8197 31.1487 50.4824C30.9238 50.145 30.6989 49.8077 30.6426 49.2454C30.1366 49.4703 30.8113 49.8639 30.6426 50.3137C30.4177 50.3137 30.1928 50.3137 29.9679 50.3137C30.0242 50.6511 30.3615 50.7635 30.3053 51.1571C29.9117 50.3699 28.8434 50.2013 28.731 49.0768C28.731 48.627 29.0121 48.4021 29.4057 48.4021C29.0683 47.7836 28.6748 48.9081 28.3374 48.4021C28.225 47.7836 28.6748 47.7274 28.5623 47.1651Z" fill="#C20D19"/>
<path fill-rule="evenodd" clip-rule="evenodd" d="M19.1727 45.9282C17.8796 46.2656 18.1607 48.121 17.5984 49.2455C17.6547 48.0085 17.6547 46.7716 17.2611 45.9282C17.0924 45.9282 16.9237 45.9282 16.7551 45.9282C16.1366 47.5587 17.4298 48.5708 17.2611 50.2575C18.1045 49.3579 18.6667 47.7274 19.1727 45.9282Z" fill="#289548"/>
<path fill-rule="evenodd" clip-rule="evenodd" d="M19.1728 47.3337C18.6667 48.1209 18.3856 49.0767 18.1045 50.145C18.6667 49.5265 20.241 47.9522 19.1728 47.3337Z" fill="#289548"/>
<path fill-rule="evenodd" clip-rule="evenodd" d="M34.1286 49.4143C33.735 49.2456 33.0603 49.3019 32.723 49.077C32.723 48.7396 32.4981 48.6834 32.5543 48.4023C33.4539 47.3902 35.0282 48.346 34.1286 49.4143Z" fill="#C20D19"/>
<path fill-rule="evenodd" clip-rule="evenodd" d="M23.6708 51.7194C23.5583 51.1571 22.2089 50.37 20.8595 50.876C22.3214 46.6591 28.9559 47.8961 29.7993 51.7194C29.968 51.6069 29.968 51.3258 30.3053 51.382C30.7551 52.5065 29.9117 52.619 30.1366 53.9684C28.6186 53.6872 27.5503 53.2374 25.976 53.4623C25.1326 53.5748 24.4017 54.3619 23.727 54.3057C22.2089 54.2495 21.9278 52.7314 20.7471 51.888C21.478 51.1009 22.6587 51.1571 23.6708 51.7194Z" fill="#F5D631"/>
<path fill-rule="evenodd" clip-rule="evenodd" d="M62.6908 48.5708C62.8595 48.5708 63.0281 48.5708 63.1968 48.5708C65.3896 52.2816 62.4659 56.8359 59.2048 57.7917C61.3976 56.2174 63.4779 54.3057 63.0281 50.4824C62.9719 49.7515 62.3534 49.4142 62.6908 48.5708Z" fill="#289548"/>
<path fill-rule="evenodd" clip-rule="evenodd" d="M64.4338 49.2455C65.1085 49.0768 64.7712 50.3138 64.6025 50.4824C64.1527 50.2575 64.2652 49.6953 64.4338 49.2455Z" fill="#A2C037"/>
<path fill-rule="evenodd" clip-rule="evenodd" d="M32.5543 50.8198C32.6668 50.3138 33.0041 50.0889 33.0603 49.5829C35.4218 49.4704 33.735 52.5066 32.5543 50.8198Z" fill="#C20D19"/>
<path fill-rule="evenodd" clip-rule="evenodd" d="M42.8434 50.4824C43.0121 50.4824 43.1807 50.4824 43.3494 50.4824C44.9799 51.6631 43.9679 55.0929 42.506 55.7113C42.3936 54.3619 43.2932 52.2254 42.8434 50.4824Z" fill="#289548"/>
<path fill-rule="evenodd" clip-rule="evenodd" d="M65.8395 50.6511C65.8395 51.382 64.9961 51.3258 64.4338 51.4944C64.6025 50.9884 65.2772 50.2575 65.8395 50.6511Z" fill="#A2C037"/>
<path fill-rule="evenodd" clip-rule="evenodd" d="M35.3655 52.3942C34.6346 52.5067 34.2972 52.1693 33.9599 51.8882C33.6225 50.4826 36.3775 50.3701 35.3655 52.3942Z" fill="#C20D19"/>
<path fill-rule="evenodd" clip-rule="evenodd" d="M30.98 51.3259C31.1487 51.3259 31.3173 52.0568 31.486 51.4946C31.9358 51.8319 31.5422 52.844 30.8113 52.5629C30.8113 52.1131 30.7551 51.5508 30.98 51.3259Z" fill="#C20D19"/>
<path fill-rule="evenodd" clip-rule="evenodd" d="M62.0161 51.3259C62.2972 51.2697 62.2972 51.4946 62.5221 51.4946C62.5221 52.9564 61.9598 53.9685 61.6787 55.1492C61.3414 54.1934 61.9036 52.5066 62.0161 51.3259Z" fill="#A2C037"/>
<path fill-rule="evenodd" clip-rule="evenodd" d="M66.5141 51.4945C65.9519 52.2254 64.9398 52.5065 64.0964 52.9001C64.6025 52.2254 65.5583 51.2133 66.5141 51.4945Z" fill="#A2C037"/>
<path fill-rule="evenodd" clip-rule="evenodd" d="M11.1325 53.2376C12.3133 52.9002 12.6506 51.5508 11.6386 50.8199C9.78313 50.4263 10.1767 52.2817 8.65863 52.2255C8.65863 52.0568 8.48996 52.0006 8.48996 51.8882C8.43373 51.5508 8.65863 51.4946 8.65863 51.2135C9.72691 51.3821 10.008 50.8199 10.739 50.7074C10.9076 49.6954 10.4016 49.3018 10.0643 48.7958C8.88353 48.6271 8.32128 49.0207 7.98394 49.6392C7.98394 50.4263 8.60241 50.6512 8.15261 51.3821C7.64659 51.101 7.47791 51.4384 7.08434 51.2135C7.75904 50.7074 7.98394 49.5829 7.42169 48.7958C4.61044 47.6151 4.72289 51.5508 6.91566 51.607C6.40964 51.6633 6.35341 52.2255 5.67871 52.1131C5.79116 51.2135 5.22892 51.0448 5.00402 50.5388C2.53012 49.6954 2.64257 53.1813 4.49799 53.1251C5.06024 53.1251 4.94779 52.338 5.90361 52.4504C5.84739 53.0127 6.29719 53.2938 5.90361 53.6874C5.00402 53.4062 4.32932 53.4062 3.82329 53.9685C3.76707 54.587 3.82329 55.093 3.99197 55.5428C4.44177 55.7115 5.06024 55.7677 5.73494 55.7115C6.24096 55.3741 6.18474 54.4183 6.40964 53.7998C6.69076 54.2496 7.53414 54.0809 7.64659 54.6432C6.35341 54.7556 5.79116 56.5548 6.97189 57.2295C9.38956 57.5107 8.99598 55.3179 8.04016 54.2496C8.26506 53.9123 8.43373 53.4625 9.10843 53.5749C7.75904 56.3862 11.9759 57.1733 11.3574 53.9123C10.9076 52.6191 8.71486 54.0809 8.77108 52.5066C9.78313 51.8882 10.1767 53.2376 11.1325 53.2376ZM7.30924 52.7315C7.30924 52.5629 7.30924 52.3942 7.30924 52.2255C7.64659 52.1693 7.75904 52.338 7.98394 52.3942C7.98394 52.6753 7.70281 52.7878 7.30924 52.7315Z" fill="#F5D631"/>
<path fill-rule="evenodd" clip-rule="evenodd" d="M33.7913 52.394C33.7913 53.1812 33.0603 53.1812 32.5543 53.4623C32.9479 53.0687 33.1728 52.5627 33.7913 52.394Z" fill="#C20D19"/>
<path fill-rule="evenodd" clip-rule="evenodd" d="M41.7752 56.8921C37.8394 56.9483 37.0523 53.125 32.3856 54.4744C34.1848 51.6632 42.5061 51.7756 41.7752 56.8921Z" fill="#F5D631"/>
<path fill-rule="evenodd" clip-rule="evenodd" d="M67.0201 52.7315C66.5141 53.7997 64.8274 53.6311 63.7029 54.1371C64.6587 53.6311 65.6707 52.2254 67.0201 52.7315Z" fill="#A2C037"/>
<path fill-rule="evenodd" clip-rule="evenodd" d="M60.6105 52.7314C61.5663 53.6873 60.3294 55.3178 60.4418 56.5547C60.1045 55.5989 60.1607 53.5186 60.6105 52.7314Z" fill="#A2C037"/>
<path fill-rule="evenodd" clip-rule="evenodd" d="M32.3856 53.4062C32.3856 54.1934 31.992 54.4745 31.5422 54.8119C29.4056 54.5307 31.0362 51.7757 32.3856 53.4062Z" fill="#C20D19"/>
<path fill-rule="evenodd" clip-rule="evenodd" d="M44.5864 53.0688C44.8675 53.0126 44.8675 53.2375 45.0924 53.2375C45.0924 53.9122 44.755 54.1933 44.249 54.3058C44.1366 53.6873 44.5864 53.6311 44.5864 53.0688Z" fill="#A2C037"/>
<path fill-rule="evenodd" clip-rule="evenodd" d="M44.7551 54.8117C44.474 54.3619 47.1728 52.2254 46.6667 54.1371C46.1045 54.4744 45.2611 54.4744 44.7551 54.8117Z" fill="#A2C037"/>
<path fill-rule="evenodd" clip-rule="evenodd" d="M25.4137 57.6229C24.6828 57.9603 23.9519 58.3539 23.5021 59.0286C20.9157 53.9121 28.6185 52.394 30.98 55.2053C34.972 55.0366 38.6266 59.8719 35.7029 62.8519C34.1286 62.2334 34.0161 60.2093 33.2852 58.8599C32.5543 60.7153 34.9157 61.8398 34.6908 63.1892C31.2611 62.9643 29.8555 60.0406 30.6989 56.5547C29.7993 58.7474 26.482 61.1651 23.727 59.3659C24.0643 58.5788 24.9639 58.2976 25.4137 57.6229Z" fill="#3A59A1"/>
<path fill-rule="evenodd" clip-rule="evenodd" d="M59.2048 53.9685C59.3735 53.9685 59.5422 53.9685 59.7108 53.9685C59.7671 55.4866 59.5984 56.7235 58.6426 57.2858C59.0924 56.3862 58.8675 54.8681 59.2048 53.9685Z" fill="#A2C037"/>
<path fill-rule="evenodd" clip-rule="evenodd" d="M66.0081 54.6432C65.6708 55.5991 64.0965 55.2617 63.1969 55.7115C63.1407 55.1493 65.0523 54.2497 66.0081 54.6432Z" fill="#A2C037"/>
<path fill-rule="evenodd" clip-rule="evenodd" d="M21.0844 54.6431C20.8033 55.0929 20.4098 55.4864 20.2411 56.0487C20.3535 56.5547 20.6347 55.88 20.9158 56.0487C19.6226 58.9162 23.8395 60.884 21.5905 62.5146C19.4539 62.0085 19.9037 59.0848 20.0162 56.7796C19.0604 58.9162 19.229 63.8077 21.2531 64.0889C23.1648 64.37 23.2772 61.7274 24.9077 61.2776C26.7632 61.6712 25.5824 64.2575 24.9077 65.1009C18.217 68.5868 16.3053 56.6672 21.0844 54.6431Z" fill="#289548"/>
<path fill-rule="evenodd" clip-rule="evenodd" d="M40.9318 57.2856C41.2129 58.0165 39.9197 58.7474 39.3575 58.8599C36.6587 59.3097 35.0844 55.5426 32.8916 55.0366C36.7711 53.4061 38.1767 57.2856 40.9318 57.2856Z" fill="#F5D631"/>
<path fill-rule="evenodd" clip-rule="evenodd" d="M46.8354 54.8118C46.6667 55.4303 45.6547 55.2616 45.0924 55.4865C45.2049 54.8118 46.2731 54.4744 46.8354 54.8118Z" fill="#A2C037"/>
<path fill-rule="evenodd" clip-rule="evenodd" d="M15.1808 60.378C14.9559 57.4543 17.5985 55.8238 19.9037 54.8118C18.0483 56.4423 17.5422 59.366 15.1808 60.378Z" fill="#A2C037"/>
<path fill-rule="evenodd" clip-rule="evenodd" d="M63.9277 56.3862C63.8715 57.2296 62.747 57.0609 61.8474 57.0609C62.3534 56.6673 62.8595 56.2738 63.9277 56.3862Z" fill="#A2C037"/>
<path fill-rule="evenodd" clip-rule="evenodd" d="M17.4298 58.8037C18.1045 59.366 17.4861 60.2093 17.5985 60.884C17.8234 62.7395 19.7913 64.0889 19.1728 66.1129C15.6306 67.0125 16.0242 60.0969 17.4298 58.8037Z" fill="#A2C037"/>
<path fill-rule="evenodd" clip-rule="evenodd" d="M30.474 62.8521C29.5181 63.6954 28.5623 64.5388 26.8193 64.595C26.988 62.9083 29.4057 63.5267 30.474 62.8521Z" fill="#289548"/>
<path fill-rule="evenodd" clip-rule="evenodd" d="M30.98 63.864C29.9679 64.6512 29.0683 66.2817 27.6627 66.113C27.5502 64.7636 29.5743 64.2576 30.98 63.864Z" fill="#289548"/>
<path fill-rule="evenodd" clip-rule="evenodd" d="M28.5623 67.5186C28.6185 65.4945 30.6426 65.5508 31.5422 64.37C31.8233 64.3138 31.8795 64.4825 31.8795 64.7074C30.6988 65.5508 30.1928 67.7435 28.5623 67.5186Z" fill="#289548"/>
<path fill-rule="evenodd" clip-rule="evenodd" d="M32.0482 64.595C32.3293 65.4383 31.7671 69.8801 29.7992 68.4183C30.0803 66.6753 31.5422 66.113 32.0482 64.595Z" fill="#A2C037"/>
<path fill-rule="evenodd" clip-rule="evenodd" d="M33.1166 65.2698C33.4539 66.1131 33.2852 68.2497 32.6105 69.0931C30.5864 68.4746 32.8354 66.338 33.1166 65.2698Z" fill="#A2C037"/>
<path fill-rule="evenodd" clip-rule="evenodd" d="M33.9599 65.6069C34.466 66.3941 34.7471 68.9242 33.9599 69.4302C32.723 68.6431 34.1286 66.9563 33.9599 65.6069Z" fill="#289548"/>
<path fill-rule="evenodd" clip-rule="evenodd" d="M36.2089 65.7756C36.9398 66.6752 38.233 68.3058 37.6145 69.4303C36.49 69.5989 36.2089 67.4062 36.2089 65.7756Z" fill="#289548"/>
<path fill-rule="evenodd" clip-rule="evenodd" d="M34.8033 65.9443C35.3093 66.5628 36.49 68.8118 35.3093 69.4303C34.3535 69.1492 35.0282 67.1251 34.8033 65.9443Z" fill="#289548"/>
<path fill-rule="evenodd" clip-rule="evenodd" d="M45.2611 7.13306C45.4298 7.92021 44.0242 8.70735 43.1808 9.0447C44.98 9.88808 45.992 8.76358 47.735 8.37C47.3977 8.8198 46.8916 9.0447 46.3294 9.21338C47.5101 10.113 49.478 8.98848 51.2209 8.87603C50.8836 9.43828 49.984 9.38205 49.3093 9.55073C49.8715 10.113 50.996 10.0568 51.727 10.3941C50.1527 10.5066 47.9037 9.83185 45.992 9.7194C46.4981 10.3379 47.3414 10.5628 48.0723 10.9564C46.5543 10.5628 44.1928 9.2696 42.1687 9.7194C43.237 10.3379 44.3053 10.9564 45.3173 11.631C43.5181 11.4624 41.7752 9.0447 38.6828 10.0568C39.4699 11.1812 41.1567 11.4061 41.8314 12.6431C40.2009 12.1371 38.3454 9.15715 36.4338 11.0688C36.7711 11.3499 37.5583 11.2375 37.8394 11.5748C36.8274 11.7435 35.2531 11.2937 34.8595 11.9122C35.7029 10.0005 38.4017 10.0005 39.0201 7.92021C39.4699 8.48245 38.5141 9.10093 38.3454 9.66318C39.976 9.38205 40.8193 8.31378 41.8314 7.41418C42.0563 8.1451 40.7069 8.87603 40.0884 9.32583C42.0563 9.60695 44.2491 8.48245 45.2611 7.13306Z" fill="white"/>
<path fill-rule="evenodd" clip-rule="evenodd" d="M41.2691 6.06487C42.2249 5.95242 43.237 4.3219 44.7551 4.15322C44.8675 5.05282 44.4177 5.33394 44.249 5.89619C44.98 5.78374 46.1045 4.60302 47.229 4.3219C47.229 4.82792 47.229 5.39017 47.229 5.89619C48.2972 5.55884 49.9278 5.78374 51.0523 5.55884C51.2772 6.40222 50.49 6.28977 50.5462 6.96447C51.6707 7.30182 53.0763 7.35804 54.0322 7.80784C53.9759 8.59499 53.3575 8.87611 52.7952 9.21346C53.9197 9.83194 54.8755 10.6191 55.9438 11.2938C55.1567 12.3058 53.3575 12.3058 51.6145 12.3621C51.2772 12.587 52.1768 13.0368 52.2892 13.4303C51.6145 13.9926 50.1527 14.0488 49.1406 13.7677C48.6346 13.9926 49.4217 14.3862 49.3093 14.836C48.1848 15.0609 46.7229 15.0609 45.8233 14.6673C45.486 14.6673 46.1045 15.342 45.6547 15.5107C44.3053 15.9605 42.9559 15.3982 42.1687 14.836C41.6065 15.1171 42.5061 15.7918 42 16.0729C40.0884 15.9042 38.6828 15.2295 37.8394 13.9926C37.4458 14.0488 37.8394 14.8922 37.5021 15.0609C36.0402 14.9484 35.8715 13.5428 35.0844 12.8119C33.2852 15.4544 32.0482 18.603 29.1808 20.1211C28.6747 20.1211 28.5623 19.6713 28.1125 19.6151C29.3494 17.7596 31.6547 17.0287 32.6667 14.8922C31.3173 15.3982 29.6868 18.0408 27.7751 18.0408C29.0121 15.7355 31.992 15.1733 33.3414 12.9805C31.992 12.9805 30.5302 16.0167 28.6185 14.8922C30.249 13.0368 33.5663 12.8681 34.5221 10.338C33.0041 10.7315 31.3173 10.4504 30.6988 9.49459C30.7551 9.10101 31.5984 9.38214 31.7671 9.49459C31.0924 8.59499 29.237 7.97651 30.0241 6.17732C30.6426 6.28977 30.6988 6.96447 30.8675 7.58294C31.4298 6.79579 29.2932 5.05282 31.0362 4.60302C31.6547 6.12109 32.1607 7.75162 33.8474 8.25764C34.241 7.69539 32.8354 7.41427 33.0041 6.51467C33.7912 6.40222 34.0723 6.85202 34.4097 7.18937C34.1286 6.23354 32.9478 6.06487 32.3294 5.44639C33.0603 4.43435 34.0723 5.78374 34.5784 6.12109C34.5784 5.55884 34.0161 5.61507 34.241 4.88415C34.9157 4.60302 35.8715 5.05282 35.6466 6.28977C35.7591 6.73957 36.1527 5.72752 36.49 6.28977C36.2651 7.58294 36.0402 8.81989 35.4217 9.77571C36.2089 8.76366 37.2772 8.03274 37.5021 6.45844C38.1205 6.28977 37.727 7.13314 37.8394 7.52672C39.0201 6.17732 39.976 4.65925 41.8314 4.04077C42.3936 4.26567 41.494 5.50262 41.2691 6.06487ZM40.0322 9.38214C40.6506 8.87611 42 8.20141 41.7751 7.47049C40.7631 8.42631 39.9197 9.43836 38.2892 9.71949C38.4579 9.21346 39.4137 8.53876 38.9639 7.97651C38.3454 10.0568 35.5904 10.0568 34.8033 11.9685C35.1406 11.35 36.7711 11.7998 37.7832 11.6311C37.5021 11.2938 36.7149 11.4062 36.3776 11.1251C38.2892 9.21346 40.1446 12.1934 41.7751 12.6994C41.1004 11.4625 39.4137 11.1813 38.6265 10.1131C41.6627 9.10101 43.4619 11.5187 45.2611 11.6874C44.249 11.0127 43.1808 10.3942 42.1125 9.77571C44.1928 9.26969 46.498 10.6191 48.0161 11.0127C47.2852 10.6191 46.4418 10.3942 45.9358 9.77571C47.8474 9.88816 50.0964 10.6191 51.6707 10.4504C50.9398 10.1131 49.7591 10.1693 49.2531 9.60704C49.984 9.43836 50.8274 9.43836 51.1647 8.93234C49.478 8.98856 47.5101 10.1131 46.3294 9.21346C46.8916 8.98856 47.3976 8.76366 47.735 8.37009C45.992 8.81989 44.98 9.94439 43.1808 9.04479C44.0241 8.70744 45.4298 7.92029 45.2611 7.13314C44.249 8.48254 42.0563 9.60704 40.0322 9.38214Z" fill="#289548"/>
<path fill-rule="evenodd" clip-rule="evenodd" d="M10.4579 27.9926C10.0643 30.1853 12.2009 31.3098 12.7069 33.2215C9.61451 31.9283 7.53418 30.0729 7.47796 26.7556C7.42173 23.4946 10.4017 20.346 10.0643 17.7034C10.0081 16.9163 9.27716 16.5227 9.38961 15.9604C11.6386 16.6351 13.4378 19.3902 13.0442 22.595C12.7631 25.0127 10.7952 28.105 12.8755 30.0729C12.0322 30.1291 11.7511 28.105 10.4579 27.9926Z" fill="#3A59A1"/>
<path fill-rule="evenodd" clip-rule="evenodd" d="M20.3535 30.2977C20.2972 31.4222 18.6667 32.5467 17.5422 33.2776C18.1045 33.7274 18.8916 33.8961 19.6225 34.121C18.9478 34.7395 17.3735 34.7395 16.3053 34.4583C16.1928 35.2455 16.8113 35.2455 16.8113 35.864C15.8555 35.9202 15.5181 35.4142 14.8997 35.1893C14.6748 36.4262 15.0121 37.8881 14.8997 39.5186C15.4619 38.2816 16.1928 36.3138 17.486 36.37C17.0362 38.3941 14.6185 39.631 15.743 42.1049C17.2049 39.0126 18.8354 35.2455 22.7149 35.133C22.1527 36.8198 20.0161 36.8198 19.229 38.2816C20.0161 38.4503 21.3655 37.6069 22.3776 38.2816C20.0161 39.7997 16.6426 40.3619 16.3053 43.8479C14.225 43.8479 13.2691 44.9724 11.7511 45.5909C11.5262 44.129 13.5503 43.5668 14.8997 43.1732C14.3374 42.386 13.6065 42.5547 12.8193 42.6672C12.8756 41.9362 13.5503 41.88 14.225 41.8238C13.7752 40.9804 12.7069 40.6431 12.482 39.5748C13.1005 39.1812 13.494 40.2495 14.0563 40.4182C12.5944 38.3379 10.7952 36.5949 9.16471 34.6832C6.85949 35.6953 5.17274 33.8399 2.3615 34.3459C1.4619 34.5146 1.237 35.3017 -0.0561713 35.0206C-0.224846 32.7154 2.47395 31.872 3.9358 30.6913C9.72696 30.6913 10.5703 36.6511 14.225 39.0688C13.8876 36.37 11.0201 36.2575 10.739 33.5025C12.6507 34.0648 13.2691 35.864 14.0563 37.4945C14.3374 36.4824 13.8314 34.9081 14.225 33.6712C13.2129 33.3901 13.7752 34.7395 12.8193 34.5146C12.7069 33.8399 12.988 33.5025 13.1567 33.1089C12.2009 31.8158 11.0764 30.6913 10.739 28.7796C11.8073 29.5668 12.2571 30.9724 13.8876 31.1973C14.8434 29.6792 15.4619 27.88 17.2049 27.2053C16.6426 28.7234 15.0121 30.129 15.6306 32.2656C17.8796 32.2093 19.2852 31.366 20.3535 30.2977Z" fill="#289548"/>
<path fill-rule="evenodd" clip-rule="evenodd" d="M8.20889 17.7595C7.98399 18.5467 8.20889 18.3218 8.37756 18.9965C7.70287 18.884 7.53419 19.3338 6.80327 19.1651C8.60246 21.7515 3.65467 21.8077 4.89162 19.1651C5.34142 18.9965 6.24102 18.8278 6.63459 19.1651C7.08439 18.6591 7.36552 17.872 8.20889 17.7595Z" fill="#C20D19"/>
<path fill-rule="evenodd" clip-rule="evenodd" d="M13.2129 49.4144C12.3133 49.2457 11.1888 49.6955 11.8073 50.4827C12.2571 50.0329 13.1005 50.0891 13.2129 49.4144Z" fill="#289548"/>
<path fill-rule="evenodd" clip-rule="evenodd" d="M16.5301 52.3943C15.0683 51.7196 14.5623 52.9565 13.7189 53.4625C12.7068 51.1573 14.5623 49.4706 15.7992 48.4023C15.237 48.1774 14.3374 48.2336 13.5502 48.2336C13.9438 47.6152 12.7068 47.4465 12.1446 47.1654C11.4699 46.7156 11.4699 45.5348 10.233 45.5911C10.1767 47.5027 12.2008 47.334 13.2129 48.1774C11.3012 48.1774 8.43376 47.2778 7.64661 47.334C9.50203 48.2898 11.4699 49.077 14.4498 48.9083C11.5261 50.2015 12.9317 57.567 16.1928 55.8802C17.0924 55.4304 17.4297 53.4063 16.5301 52.3943Z" fill="#289548"/>
<path fill-rule="evenodd" clip-rule="evenodd" d="M34.2972 49.9764C34.5784 49.4704 35.3655 48.7957 35.8715 49.133C36.2089 49.5266 35.984 50.3138 35.7029 50.5387C36.0402 50.9322 37.0523 50.5949 37.4458 50.876C37.6145 51.8318 36.8836 51.9443 36.0402 51.9443C36.3213 50.4262 34.6346 50.8198 34.2972 49.9764Z" fill="#C20D19"/>
<path fill-rule="evenodd" clip-rule="evenodd" d="M27.8876 7.58299C29.6868 7.35809 30.6988 10.5629 28.3936 10.5629C28.7872 10.9003 29.1245 11.3501 29.237 11.9685C29.0121 12.9244 28.4498 13.4866 27.1566 13.3742C26.3695 12.8681 26.7068 10.3942 25.0763 11.2938C25.5823 12.081 26.7631 12.5308 26.3133 13.7115C25.3012 14.6673 23.502 14.1613 23.3333 12.8681C23.4458 11.9123 24.6827 11.9685 24.739 10.9565C24.6827 10.7878 24.5703 10.7878 24.5703 10.6191C23.6145 10.5067 23.7269 11.4063 23.502 12.0248C22.8273 12.3621 21.9277 12.1934 21.4217 11.8561C21.253 11.4063 21.1968 10.7878 21.253 10.1131C21.7028 9.83199 22.0402 9.49464 22.6586 9.43842C23.0522 9.71954 23.3896 10.0007 23.7269 10.2818C24.2892 10.4505 24.0643 9.83199 24.4016 9.77576C24.4016 8.98862 23.2771 8.93239 22.6586 9.26974C19.4538 7.47054 25.0763 4.32195 24.5703 8.93239C25.245 8.93239 25.5823 8.53882 25.8072 8.08902C25.751 7.52677 25.1325 7.47054 25.1325 6.85207C24.9639 4.09705 29.6868 5.5589 27.8876 7.58299ZM26.8193 9.32597C26.9317 8.93239 27.2129 8.65127 27.1566 8.08902C26.8193 8.08902 26.4819 8.08902 26.0884 8.08902C25.751 8.76372 26.4257 8.98862 26.8193 9.32597ZM26.6506 11.0689C27.1004 10.844 27.7751 10.7878 28.2249 10.5629C27.494 10.6191 27.494 9.88821 26.8193 9.88821C26.7068 10.2256 26.3133 10.7316 26.6506 11.0689Z" fill="#C20D19"/>
<path fill-rule="evenodd" clip-rule="evenodd" d="M6.80332 44.5789C6.52219 44.5789 6.24107 44.5789 5.95995 44.5789C5.73505 45.5909 6.52219 45.6471 6.63464 46.3218C5.8475 49.864 1.85553 45.4785 5.3977 44.9162C5.3977 44.354 4.9479 44.2977 4.55432 44.2415C4.61055 46.7716 0.506131 46.9965 1.96798 43.7355C2.64268 43.2857 3.42983 43.623 3.99207 43.8479C4.38565 43.7355 4.16075 42.7797 3.99207 42.611C2.41778 44.0728 -0.112343 42.2174 1.5744 40.5307C2.13665 40.5869 2.86758 40.4182 3.1487 40.6994C2.36155 38.9564 5.22902 37.7757 5.95995 39.4624C6.12862 40.4182 5.56637 40.5307 5.45392 41.2054C5.6226 41.6552 6.12862 41.6552 6.69087 41.7114C6.52219 40.6994 6.12862 39.9684 6.69087 39.1251C7.92782 38.6753 8.88364 39.0688 9.10854 39.7998C9.61456 41.4303 7.70292 41.6552 6.85954 42.3861C7.92782 43.623 8.15272 41.599 9.10854 41.5427C11.1326 41.3741 11.5824 44.1853 9.10854 44.354C9.55834 45.4222 8.99609 46.1532 8.60252 46.7716C7.14067 46.9403 6.12862 45.9283 6.80332 44.5789ZM3.99207 42.2736C4.61055 42.2736 4.66677 41.7676 4.83545 41.4303C4.32942 41.3178 3.93585 41.1492 3.42983 41.0929C3.5985 41.5427 3.65472 42.105 3.99207 42.2736ZM6.97199 44.1853C7.42179 43.7917 8.32139 44.2977 8.54629 44.0166C8.20894 43.9042 8.09649 43.5668 8.04027 43.1733C7.14067 43.0046 6.85954 43.3981 6.97199 44.1853Z" fill="#C20D19"/>
<path fill-rule="evenodd" clip-rule="evenodd" d="M22.8274 42.105C22.7711 42.5548 23.1085 42.6672 23.3334 42.7796C23.5021 42.6672 23.1647 41.7676 23.5021 41.374C24.6828 40.2495 27.0442 41.9363 25.5824 42.9483C26.2009 43.5106 26.5944 44.9162 25.7511 45.5347C25.0201 45.4784 25.1326 44.6351 24.6828 44.2977C25.976 45.6471 23.727 48.9082 22.2651 46.5467C22.1527 45.872 22.4338 45.5347 22.6025 45.1411C22.3213 45.1411 22.0402 45.1411 21.7591 45.1411C22.4338 46.6592 21.3655 48.1772 20.0161 47.5588C19.735 47.109 19.3976 46.0407 19.8474 45.4784C18.0482 45.9282 17.4298 43.9604 18.4418 43.0608C19.229 43.117 19.7912 43.4543 20.5221 43.5668C20.8595 43.5668 20.6346 43.0046 20.8595 42.8921C17.2611 44.2977 18.8354 38.619 21.1968 40.9805C21.2531 41.5989 21.1406 41.9363 21.0282 42.3861C21.0844 42.611 21.984 42.1612 22.2651 42.0487C21.8715 41.4865 21.1968 41.1491 21.1968 40.1371C22.8836 38.3379 25.0201 41.0367 22.8274 42.105ZM21.5904 43.5106C21.8153 43.6792 22.0402 43.7355 22.4338 43.6792C22.5462 43.117 21.6466 42.9483 21.5904 43.5106ZM20.0161 45.4222C20.5784 45.5347 20.3535 44.9162 20.8595 45.0849C21.0844 45.0849 21.0844 45.3098 21.3655 45.2535C21.3093 44.7475 20.747 44.6913 20.5221 44.4102C20.6908 45.0286 20.1286 44.9724 20.0161 45.4222Z" fill="#3A59A1"/>
<path fill-rule="evenodd" clip-rule="evenodd" d="M49.6466 67.6873C49.3093 68.1933 50.6025 68.5869 50.49 69.4302C48.241 69.2053 46.7229 68.2495 45.2611 67.1812C44.98 67.9122 46.1607 68.6993 45.9358 69.9925C44.5864 69.2616 43.3494 68.4182 42.2812 67.4061C41.9438 67.631 42 68.3057 41.7751 68.6431C40.6506 68.0808 40.482 66.5628 39.6948 65.6632C39.4699 65.8881 39.3575 66.2816 39.3575 66.7314C38.7952 66.1692 38.6828 64.6511 39.0201 63.7515C38.6828 62.9644 37.0523 63.4704 37.1085 62.3459C39.0201 62.627 41.494 63.9202 42.6747 65.4945C42.4498 64.876 41.9438 64.4824 41.4378 64.0889C43.3494 63.358 44.9237 64.4262 45.7671 65.3258C46.0482 64.8198 44.5302 64.5949 44.5302 63.7515C46.7229 62.627 47.5101 64.9322 49.0844 65.4945C48.8595 64.37 47.3976 64.5387 47.1727 63.4142C49.0844 62.2897 50.3213 63.9764 51.8956 64.2576C51.3334 63.6953 50.49 63.4142 49.8153 63.0206C50.7149 62.0086 52.4579 62.4584 53.8073 62.6833C53.9197 62.0086 52.6265 62.7395 52.739 62.0086C54.2008 61.7837 55.0442 60.9403 56.3936 60.6029C55.1004 60.4343 53.6948 61.615 52.233 61.8399C52.7952 61.2776 53.4137 60.8278 53.9759 60.2656C52.739 60.378 51.9518 62.4021 49.984 62.3459C49.9278 61.3339 50.8274 61.3339 50.8274 60.4343C50.2089 60.4343 49.6466 61.9523 49.2531 62.6833C48.0161 62.4584 47.5663 63.0768 46.4418 63.0206C46.9478 62.2335 47.8474 61.8399 48.1848 60.9403C47.0603 61.1652 45.992 63.864 44.1928 63.358C44.5302 62.5708 45.0924 61.9523 45.5984 61.2776C44.9237 61.3901 44.0804 62.9082 43.3494 63.5266C42.8996 63.4142 41.9438 63.7515 41.7751 63.358C40.9318 63.3017 42.1687 62.8519 42.1125 62.5146C41.494 62.5708 41.494 63.3017 40.7069 63.1893C40.0884 62.8519 40.4257 62.627 39.6386 63.0206C39.245 62.121 38.6828 60.3218 39.6386 59.5347C40.0884 59.4222 39.9759 59.872 40.3133 59.872C40.482 57.6792 42.2249 58.129 43.1245 56.7234C43.4619 56.8359 43.5181 57.0045 43.2932 57.2294C44.1928 57.0608 44.3615 56.2174 45.3735 56.1612C45.3173 56.5547 45.0924 56.8359 45.2049 57.3981C46.2731 57.0608 46.9478 54.868 48.8595 54.8118C48.8595 55.4865 48.8595 56.2174 48.8595 56.8921C49.7029 56.1612 50.5462 54.5306 51.8394 54.8118C51.9518 55.5427 51.5583 55.7114 51.6707 56.3861C52.1767 56.3861 52.9077 55.2053 54.2571 55.5427C54.3133 56.2736 54.0884 56.6672 53.9197 57.117C55.0442 56.7234 56.3374 55.8238 57.9117 56.4423C57.743 57.2857 57.3494 57.8479 57.0683 58.5226C58.0241 58.7475 59.486 58.4102 60.5543 58.86C60.0482 60.9965 58.3615 62.0086 56.731 63.0206C56.8996 63.7515 57.6868 63.9202 57.7992 64.7636C57.1245 65.3258 55.2129 65.2134 54.482 64.7636C54.482 65.5507 55.494 65.382 55.3253 66.3379C54.3133 66.2816 53.6386 66.619 52.5141 66.5065C52.5141 67.2937 53.3012 67.3499 53.1888 68.2495C51.8956 68.2495 50.4338 68.3057 49.6466 67.6873Z" fill="#289548"/>
<path d="M56 45.7596C55.9438 45.7596 55.9438 45.7596 55.8876 45.7596C55.8314 45.7596 55.8314 45.7596 55.7751 45.7596C55.7189 45.7596 55.7189 45.7596 55.6627 45.7034C55.6065 45.6472 55.6065 45.6472 55.5502 45.6472L55.6065 45.1974C55.6627 45.1974 55.6627 45.2536 55.7189 45.2536C55.7751 45.2536 55.8314 45.3098 55.8876 45.3098C55.9438 45.3098 56.0563 45.3098 56.1125 45.2536C56.1687 45.1974 56.2249 45.1412 56.2812 45.0287L55.2129 42.8359H55.8314L56.5623 44.4102L57.237 42.8359H57.8555L56.8434 45.0849C56.7872 45.1974 56.731 45.3098 56.6747 45.4223C56.6185 45.5347 56.5623 45.591 56.5061 45.6472C56.4498 45.7034 56.3936 45.7596 56.2812 45.7596C56.1687 45.7596 56.1125 45.7596 56 45.7596Z" fill="#333333"/>
<path d="M58.755 44.0165H58.9799L59.8795 42.7795H60.5542L59.486 44.1852L60.6667 45.7032H60.0482L59.0924 44.4663H58.8113V45.7032H58.249V42.7795H58.8113V44.0165H58.755Z" fill="#333333"/>
<path d="M60.8916 45.7032V42.7795H62.1285C62.241 42.7795 62.4097 42.8358 62.5221 42.892C62.6346 42.9482 62.747 43.0044 62.8032 43.1169C62.8595 43.2293 62.9719 43.3418 62.9719 43.4542C63.0281 43.5667 63.0281 43.6791 63.0281 43.7916C63.0281 43.904 63.0281 44.0165 62.9719 44.1289C62.9157 44.2414 62.8595 44.3538 62.8032 44.4663C62.747 44.5787 62.6346 44.635 62.5221 44.6912C62.4097 44.7474 62.2972 44.7474 62.1285 44.7474H61.4539V45.7595H60.8916V45.7032ZM61.4539 44.2414H62.1285C62.241 44.2414 62.2972 44.1852 62.4097 44.1289C62.4659 44.0165 62.5221 43.904 62.5221 43.7916C62.5221 43.7354 62.5221 43.6229 62.4659 43.5667C62.4659 43.5105 62.4097 43.4542 62.3534 43.398C62.2972 43.3418 62.2972 43.3418 62.241 43.2856C62.1848 43.2856 62.1285 43.2293 62.0723 43.2293H61.4539V44.2414Z" fill="#333333"/>
<path d="M64.0965 42.7795H64.6025L65.727 45.7032H65.1647L64.8836 44.9723H63.8716L63.5904 45.7032H63.0282L64.0965 42.7795ZM64.7712 44.5787L64.3776 43.398L63.9278 44.5787H64.7712Z" fill="#333333"/>
<path d="M65.7269 42.4423V41.9363H66.1767V42.4423H65.7269ZM66.0643 45.7034V42.7797H66.6265V45.7034H66.0643ZM66.5141 42.4423V41.9363H66.9639V42.4423H66.5141Z" fill="#333333"/>
<path d="M69.7189 42.7795V45.7032H69.1566V44.4663H67.8072V45.7032H67.245V42.7795H67.8072V43.9603H69.1566V42.7795H69.7189Z" fill="#333333"/>
<path d="M70.1687 44.2416C70.1687 44.0729 70.2249 43.9042 70.2811 43.7355C70.3374 43.5669 70.4498 43.3982 70.5623 43.2857C70.6747 43.1733 70.8434 43.0608 71.0121 42.9484C71.1807 42.8359 71.4056 42.8359 71.6305 42.8359C71.9117 42.8359 72.1366 42.8922 72.3052 43.0046C72.5301 43.1171 72.6426 43.2857 72.755 43.4544L72.3052 43.7355C72.249 43.6793 72.1928 43.5669 72.1928 43.5106C72.1366 43.4544 72.0803 43.3982 72.0241 43.3982C71.9679 43.342 71.9117 43.342 71.7992 43.342C71.743 43.342 71.6868 43.342 71.5743 43.342C71.4056 43.342 71.2932 43.3982 71.1807 43.4544C71.0683 43.5106 71.0121 43.5669 70.8996 43.6793C70.8434 43.7918 70.7872 43.9042 70.731 44.0167C70.6747 44.1291 70.6747 44.2416 70.6747 44.354C70.6747 44.4665 70.6747 44.6351 70.731 44.7476C70.7872 44.86 70.8434 44.9725 70.8996 45.0849C70.9558 45.1974 71.0683 45.2536 71.1807 45.3098C71.2932 45.3661 71.4056 45.3661 71.5181 45.3661C71.5743 45.3661 71.6305 45.3661 71.743 45.3661C71.7992 45.3661 71.8554 45.3098 71.9679 45.3098C72.0241 45.2536 72.0803 45.2536 72.1366 45.1974C72.1928 45.1412 72.249 45.0849 72.249 44.9725L72.6988 45.2536C72.6426 45.3661 72.5864 45.4785 72.4739 45.5347C72.3615 45.591 72.3052 45.7034 72.1928 45.7596C72.0803 45.8159 71.9679 45.8721 71.8554 45.8721C71.743 45.9283 71.6305 45.9283 71.4619 45.9283C71.237 45.9283 71.0683 45.8721 70.8996 45.8159C70.7309 45.7034 70.5623 45.591 70.4498 45.4785C70.3374 45.3098 70.2249 45.1974 70.1687 44.9725C70.2249 44.6351 70.1687 44.4102 70.1687 44.2416Z" fill="#333333"/>
<path d="M73.2049 42.7795H73.7672V43.8478H74.3294C74.4981 43.8478 74.6105 43.8478 74.723 43.904C74.8354 43.9603 74.9479 44.0165 75.0603 44.0727C75.1728 44.1289 75.229 44.2414 75.2852 44.3538C75.3414 44.4663 75.3414 44.5787 75.3414 44.7474C75.3414 44.9161 75.3414 45.0285 75.2852 45.141C75.229 45.2534 75.1728 45.3659 75.0603 45.4221C74.9479 45.4783 74.8354 45.5908 74.723 45.5908C74.6105 45.647 74.4418 45.647 74.3294 45.647H73.1487V42.7795H73.2049ZM73.7672 45.2534H74.2732C74.4419 45.2534 74.5543 45.1972 74.6105 45.141C74.6667 45.0285 74.723 44.9161 74.723 44.8036C74.723 44.635 74.6667 44.5225 74.6105 44.4663C74.5543 44.3538 74.3856 44.3538 74.2732 44.3538H73.7672V45.2534Z" fill="#333333"/>
<path d="M76.3535 44.0165H76.5784L77.478 42.7795H78.1527L77.0844 44.1852L78.2652 45.7032H77.5905L76.6346 44.4663H76.3535V45.7032H75.7913V42.7795H76.3535V44.0165Z" fill="#333333"/>
<path d="M79.3334 42.7795H79.8394L80.9639 45.7032H80.4017L80.1206 44.9723H79.1085L78.8274 45.7032H78.2651L79.3334 42.7795ZM80.0081 44.5787L79.6145 43.398L79.1647 44.5787H80.0081Z" fill="#333333"/>
<path d="M83.1005 42.7795H83.6065L84.731 45.7032H84.1688L83.8877 44.9723H82.8756L82.5945 45.7032H82.0322L83.1005 42.7795ZM83.7752 44.5787L83.3816 43.398L82.9318 44.5787H83.7752Z" fill="#333333"/>
<path d="M84.7872 44.2416C84.7872 44.0729 84.8435 43.9042 84.8997 43.7355C84.9559 43.5669 85.0684 43.3982 85.1808 43.2857C85.2933 43.1733 85.4619 43.0608 85.6306 42.9484C85.7993 42.8359 86.0242 42.8359 86.2491 42.8359C86.5302 42.8359 86.7551 42.8922 86.98 43.0046C87.2049 43.1171 87.3174 43.2857 87.4298 43.4544L86.98 43.7355C86.9238 43.6793 86.8675 43.5669 86.8113 43.5106C86.7551 43.4544 86.6989 43.3982 86.6427 43.3982C86.5864 43.342 86.5302 43.342 86.4178 43.342C86.3615 43.342 86.3053 43.342 86.1929 43.342C86.0242 43.342 85.9117 43.3982 85.7993 43.4544C85.6868 43.5106 85.6306 43.5669 85.5182 43.6793C85.4619 43.7918 85.4057 43.9042 85.3495 44.0167C85.2933 44.1291 85.2933 44.2416 85.2933 44.354C85.2933 44.4665 85.2933 44.6351 85.3495 44.7476C85.4057 44.86 85.4619 44.9725 85.5182 45.0849C85.5744 45.1974 85.6868 45.2536 85.7993 45.3098C85.9117 45.3661 86.0242 45.3661 86.1366 45.3661C86.1929 45.3661 86.2491 45.3661 86.3615 45.3661C86.4178 45.3661 86.474 45.3098 86.5864 45.3098C86.6427 45.2536 86.6989 45.2536 86.7551 45.1974C86.8113 45.1412 86.8676 45.0849 86.8676 44.9725L87.3174 45.2536C87.2611 45.3661 87.2049 45.4785 87.0924 45.5347C86.98 45.591 86.9238 45.7034 86.8113 45.7596C86.6989 45.8159 86.5864 45.8721 86.474 45.8721C86.3615 45.9283 86.2491 45.9283 86.1366 45.9283C85.9117 45.9283 85.7431 45.8721 85.5744 45.8159C85.4057 45.7034 85.237 45.591 85.1246 45.4785C85.0121 45.3098 84.8997 45.1974 84.8435 44.9725C84.7872 44.6351 84.7872 44.4102 84.7872 44.2416Z" fill="#333333"/>
<path d="M89.004 45.7595C88.7791 45.7595 88.6104 45.7032 88.4418 45.647C88.2731 45.5908 88.1044 45.4783 87.992 45.3097C87.8795 45.1972 87.7671 45.0285 87.7108 44.8036C87.6546 44.635 87.5984 44.4663 87.5984 44.2414C87.5984 44.0727 87.6546 43.8478 87.7108 43.6791C87.7671 43.5105 87.8795 43.3418 87.992 43.2293C88.1044 43.1169 88.2731 43.0044 88.4418 42.892C88.6104 42.8358 88.8353 42.7795 89.004 42.7795C89.2289 42.7795 89.3976 42.8358 89.5663 42.892C89.7349 43.0044 89.9036 43.1169 90.0161 43.2293C90.1285 43.398 90.241 43.5105 90.2972 43.7354C90.3534 43.904 90.4096 44.0727 90.4096 44.2976C90.4096 44.4663 90.3534 44.6912 90.2972 44.8599C90.241 45.0285 90.1285 45.1972 90.0161 45.3097C89.9036 45.4221 89.7349 45.5346 89.5663 45.647C89.3976 45.7032 89.2289 45.7595 89.004 45.7595ZM88.1606 44.2414C88.1606 44.3538 88.1606 44.4663 88.2169 44.635C88.2731 44.7474 88.3293 44.8599 88.3855 44.9723C88.4418 45.0848 88.5542 45.141 88.6667 45.1972C88.7791 45.2534 88.8916 45.2534 89.004 45.2534C89.1165 45.2534 89.2851 45.1972 89.3976 45.141C89.51 45.0848 89.5663 45.0285 89.6787 44.9161C89.7349 44.8036 89.7912 44.6912 89.8474 44.5787C89.9036 44.4663 89.9036 44.3538 89.9036 44.2414C89.9036 44.1289 89.9036 44.0165 89.8474 43.8478C89.7912 43.7354 89.7349 43.6229 89.6787 43.5105C89.6225 43.398 89.51 43.3418 89.3976 43.2856C89.2851 43.2293 89.1727 43.2293 89.0602 43.2293C88.9478 43.2293 88.7791 43.2856 88.6667 43.3418C88.5542 43.398 88.4418 43.4542 88.3855 43.5667C88.3293 43.6791 88.2731 43.7916 88.2169 43.904C88.1606 44.0165 88.1606 44.1289 88.1606 44.2414Z" fill="#333333"/>
<path d="M93.1084 45.7032H90.9156V42.7795H91.4779V45.1972H92.6024V42.7795H93.1646V45.1972H93.6144V46.4342H93.0522V45.7032H93.1084Z" fill="#333333"/>
<path d="M94.0081 45.7032V42.7795H94.5703V45.7032H94.0081Z" fill="#333333"/>
<path d="M96.0884 42.7795H96.5944L97.7189 45.7032H97.1567L96.8756 44.9723H95.8635L95.5824 45.7032H95.0201L96.0884 42.7795ZM96.7069 44.5787L96.3133 43.398L95.8635 44.5787H96.7069Z" fill="#333333"/>
<path d="M100.249 45.7032H98.0563V42.7795H98.6185V45.1972H99.743V42.7795H100.305V45.1972H100.755V46.4342H100.193V45.7032H100.249Z" fill="#333333"/>
<path d="M101.149 45.7032V42.7795H101.711V45.7032H101.149Z" fill="#333333"/>
<path d="M103.904 45.7032V44.635H103.454L102.779 45.7032H102.161L102.892 44.5225C102.723 44.4663 102.61 44.3538 102.498 44.1852C102.386 44.0165 102.329 43.8478 102.329 43.6791C102.329 43.5667 102.329 43.4542 102.386 43.3418C102.442 43.2293 102.498 43.1169 102.554 43.0607C102.61 42.9482 102.723 42.892 102.835 42.8358C102.948 42.7795 103.06 42.7795 103.229 42.7795H104.466V45.7032H103.904ZM103.904 43.2856H103.285C103.229 43.2856 103.173 43.2856 103.116 43.3418C103.06 43.3418 103.004 43.398 103.004 43.4542C102.948 43.5105 102.948 43.5105 102.892 43.5667C102.892 43.6229 102.835 43.6791 102.835 43.7354C102.835 43.8478 102.892 43.9603 102.948 44.0727C103.004 44.1289 103.116 44.1852 103.229 44.1852H103.847V43.2856H103.904Z" fill="#333333"/>
<path d="M108.402 44.9725C108.402 45.0849 108.402 45.1974 108.345 45.3098C108.289 45.4223 108.233 45.4785 108.12 45.5347C108.008 45.591 107.952 45.6472 107.839 45.7034C107.727 45.7596 107.614 45.7596 107.446 45.7596H106.04V42.8359H107.614C107.727 42.8359 107.783 42.8359 107.896 42.8922C107.952 42.9484 108.064 43.0046 108.12 43.0608C108.177 43.1171 108.233 43.2295 108.233 43.2857C108.289 43.3982 108.289 43.4544 108.289 43.5669C108.289 43.7355 108.233 43.848 108.177 43.9604C108.12 44.0729 108.008 44.1853 107.839 44.2416C108.008 44.2978 108.12 44.354 108.233 44.5227C108.402 44.6351 108.402 44.8038 108.402 44.9725ZM106.602 43.2857V44.0167H107.39C107.502 44.0167 107.558 43.9604 107.614 43.9042C107.671 43.848 107.727 43.7355 107.727 43.6231C107.727 43.5106 107.671 43.3982 107.614 43.342C107.558 43.2857 107.502 43.2295 107.39 43.2295H106.602V43.2857ZM107.839 44.86C107.839 44.8038 107.839 44.7476 107.839 44.6914C107.839 44.6351 107.783 44.5789 107.783 44.5789C107.727 44.5227 107.727 44.5227 107.671 44.4665C107.614 44.4665 107.558 44.4102 107.558 44.4102H106.659V45.1974H107.502C107.558 45.1974 107.614 45.1974 107.671 45.1412C107.727 45.1412 107.783 45.0849 107.783 45.0849C107.839 45.0287 107.839 45.0287 107.839 44.9725C107.839 44.9725 107.839 44.9163 107.839 44.86Z" fill="#333333"/>
<path d="M109.92 45.7032V42.7795H110.482V45.7032H109.92Z" fill="#333333"/>
<path d="M110.932 44.2416C110.932 44.0729 110.988 43.9042 111.044 43.7355C111.1 43.5669 111.213 43.3982 111.325 43.2857C111.438 43.1733 111.606 43.0608 111.775 42.9484C111.944 42.8359 112.169 42.8359 112.394 42.8359C112.675 42.8359 112.9 42.8922 113.125 43.0046C113.349 43.1171 113.462 43.2857 113.574 43.4544L113.125 43.7355C113.068 43.6793 113.012 43.5669 112.956 43.5106C112.9 43.4544 112.843 43.3982 112.787 43.3982C112.731 43.342 112.675 43.342 112.562 43.342C112.506 43.342 112.45 43.342 112.337 43.342C112.169 43.342 112.056 43.3982 111.944 43.4544C111.831 43.5106 111.775 43.5669 111.663 43.6793C111.606 43.7918 111.55 43.9042 111.494 44.0167C111.438 44.1291 111.438 44.2416 111.438 44.354C111.438 44.4665 111.438 44.6351 111.494 44.7476C111.55 44.86 111.606 44.9725 111.663 45.0849C111.719 45.1974 111.831 45.2536 111.944 45.3098C112.056 45.3661 112.169 45.3661 112.281 45.3661C112.337 45.3661 112.394 45.3661 112.506 45.3661C112.562 45.3661 112.675 45.3098 112.731 45.3098C112.787 45.2536 112.843 45.2536 112.9 45.1974C112.956 45.1412 113.012 45.0849 113.012 44.9725L113.462 45.2536C113.406 45.3661 113.349 45.4785 113.237 45.5347C113.125 45.591 113.068 45.7034 112.956 45.7596C112.843 45.8159 112.731 45.8721 112.619 45.8721C112.506 45.9283 112.394 45.9283 112.281 45.9283C112.056 45.9283 111.888 45.8721 111.719 45.8159C111.55 45.7034 111.382 45.591 111.269 45.4785C111.157 45.3098 111.044 45.1974 110.988 44.9725C110.988 44.6351 110.932 44.4102 110.932 44.2416Z" fill="#333333"/>
<path d="M113.968 42.7795H116.386V45.7032H115.823V43.2856H114.53V45.7032H113.968V42.7795Z" fill="#333333"/>
<path d="M117.904 42.7795H118.41L119.534 45.7032H118.972L118.635 44.9723H117.623L117.341 45.7032H116.779L117.904 42.7795ZM118.522 44.5787L118.129 43.398L117.679 44.5787H118.522Z" fill="#333333"/>
<path d="M122.289 42.7795V45.7032H121.727V44.4663H120.378V45.7032H119.815V42.7795H120.378V43.9603H121.727V42.7795H122.289Z" fill="#333333"/>
<path d="M122.964 45.7032V42.7795H123.526V45.7032H122.964Z" fill="#333333"/>
<path d="M123.807 42.4423V41.9363H124.257V42.4423H123.807ZM124.145 45.7034V42.7797H124.707V45.7034H124.145ZM124.594 42.4423V41.9363H125.044V42.4423H124.594Z" fill="#333333"/>
<path d="M39.0764 41.374H40.8194C40.0885 35.6952 42.5624 37.1009 45.5985 21.4703C45.2049 20.2334 44.7551 19.1089 44.2491 18.1531H49.4218C48.8033 29.623 48.8033 34.0085 52.1768 41.4302H53.5262C55.3254 43.8479 53.1889 45.8157 50.2089 47.2776C48.8595 47.7836 49.2531 48.5707 49.0282 48.4583C48.5784 48.2896 48.0724 47.5025 48.8033 46.6029C49.8154 45.2535 50.2089 44.0728 49.478 42.4985H43.1246C42.3937 44.0728 42.7873 45.2535 43.7993 46.6029C44.474 47.5587 44.0242 48.2896 43.5744 48.4583C43.3495 48.5707 43.7431 47.7836 42.3937 47.2776C39.4138 45.7595 37.2772 43.7916 39.0764 41.374ZM45.711 41.374H47.5101C47.7913 35.4703 47.4539 29.3418 46.3294 24.3378C42.5624 35.2454 44.5865 39.0125 45.711 41.374Z" fill="#3A59A1"/>
<path d="M63.1969 31.7594C63.1969 31.9843 63.3656 32.0967 63.5343 31.8156C67.3576 24.6188 66.9078 23.8317 65.6708 21.6389H69.3816C71.4057 25.6309 63.8716 29.8478 63.9278 33.4461C63.9278 34.4582 65.8957 35.92 66.7391 36.2574C69.1567 37.3257 70.8435 38.9562 69.3816 40.8678H65.6708C67.47 38.4502 66.1768 37.0445 63.5343 34.8518C63.3094 34.6831 63.1969 34.7955 63.1969 35.0204C63.3656 37.4381 64.1527 39.3498 64.5463 40.8678H60.4419C60.8917 39.2935 61.6226 37.3819 61.7913 35.0204C61.7913 34.7955 61.6226 34.6831 61.4539 34.8518C58.8676 37.0445 57.5744 38.4502 59.3174 40.8678H55.6628C54.2009 38.9562 55.8877 37.3257 58.3053 36.2574C59.1487 35.92 61.0604 34.402 61.1166 33.4461C61.1728 29.8478 53.6387 25.6309 55.6628 21.6389H59.3736C58.1367 23.8317 57.6869 24.5626 61.5102 31.8156C61.6788 32.0967 61.8475 31.9843 61.8475 31.7594C62.0162 29.9602 61.1728 23.5506 60.4981 21.6389C61.6226 21.6389 63.1407 21.6389 64.6025 21.6389C63.8716 23.5506 62.972 29.9602 63.1969 31.7594Z" fill="#3A59A1"/>
<path d="M76.6909 28.7795C79.1086 29.5104 80.7953 30.6349 79.3335 31.9281H75.6226C77.3094 29.2855 74.8917 29.5666 74.4981 28.7795C74.3294 32.4903 74.8917 36.4261 75.7351 40.0807H77.7592C78.3214 38.8437 78.6588 37.0445 77.9841 35.8076C77.5343 34.9642 77.6467 33.7835 78.0403 33.671C78.209 33.6148 78.3776 34.6831 79.1086 35.2453C80.5704 36.4261 81.8074 38.6751 80.964 40.8678H71.7993C73.6547 35.2453 73.0363 26.8116 71.7993 21.6389H80.6829C82.1447 23.5506 80.4017 25.1249 78.0403 26.2494C76.972 26.6429 77.3094 27.2614 77.1407 27.2052C76.8033 27.0365 76.4098 26.4743 76.972 25.6871C77.8154 24.6188 78.0965 23.663 77.5343 22.4261H75.7351C75.1728 23.8879 74.8355 25.406 74.6668 27.0365C74.5543 28.3297 75.8475 28.4984 76.6909 28.7795Z" fill="#3A59A1"/>
<path d="M83.213 40.8678C85.0684 35.2453 84.45 26.8116 83.213 21.6389H92.0965C93.5584 23.5506 91.8154 25.1249 89.454 26.2494C87.8797 26.9803 86.1929 28.8357 85.968 30.7474C85.7994 32.5465 86.6427 38.9562 87.3174 40.8678H83.213ZM86.2492 27.655C88.5544 25.6871 89.7913 24.3939 88.8917 22.4261H87.0363C86.5865 23.7755 86.0243 25.4622 85.9118 27.4863C85.8556 27.7112 86.1367 27.8799 86.2492 27.655Z" fill="#3A59A1"/>
<path d="M99.1809 28.7795C101.599 29.5104 103.285 30.6349 101.823 31.9281H98.1126C99.7993 29.2855 97.3817 29.5666 96.9881 28.7795C96.8194 32.4903 97.3817 36.4261 98.225 40.0807H100.249C100.811 38.8437 101.149 37.0445 100.474 35.8076C100.024 34.9642 100.137 33.7835 100.53 33.671C100.699 33.6148 100.868 34.6831 101.599 35.2453C103.06 36.4261 104.297 38.6751 103.454 40.8678H94.2893C96.1447 35.2453 95.5263 26.8116 94.2893 21.6389H103.173C104.635 23.5506 102.892 25.1249 100.53 26.2494C99.462 26.6429 99.7993 27.2614 99.6307 27.2052C99.2933 27.0365 98.8997 26.4743 99.462 25.6871C100.305 24.6188 100.586 23.663 100.024 22.4261H98.1688C97.6066 23.8879 97.2692 25.406 97.1006 27.0365C97.0443 28.3297 98.3375 28.4984 99.1809 28.7795Z" fill="#3A59A1"/>
<path d="M109.47 24.2815C109.133 23.2694 108.795 22.4261 108.402 21.6389H112.506C112 31.1409 112 34.5144 115.036 40.8678H110.932C111.269 35.92 110.988 30.6911 110.088 26.5305C106.603 36.5385 109.301 38.9562 109.92 40.8678H105.815C104.916 35.3578 106.996 37.3819 109.47 24.2815Z" fill="#3A59A1"/>
<path d="M119.366 40.8678C119.028 40.8678 118.466 40.7554 118.353 40.5305C118.691 40.0245 117.735 38.5626 116.667 35.6389C115.486 32.3216 115.88 28.161 117.679 25.1811C118.578 23.5506 119.084 22.3136 118.466 21.6389H121.333C121.671 21.6389 122.233 21.7514 122.345 21.9763C122.008 22.4823 122.964 23.9441 124.032 26.8678C125.213 30.1851 124.819 34.3457 123.02 37.3257C122.121 38.9562 121.615 40.1931 122.233 40.8678H119.366ZM118.578 25.6871C115.542 31.5907 120.096 34.9642 121.165 38.5064C121.502 38.0566 121.839 37.4943 122.177 36.8759C125.213 30.9722 120.659 27.5988 119.59 24.0566C119.197 24.5064 118.86 25.0686 118.578 25.6871Z" fill="#3A59A1"/>
</svg>
